<svg xmlns="http://www.w3.org/2000/svg" viewBox="0 0 90 90">
  <g transform="scale(0.95) translate(2, 2)">
    <path d="M 89.768 58.694 c -0.775 -2.537 -3.332 -4.101 -5.937 -3.636 c -2.398 0.427 -4.958 1.025 -7.62 1.693 c -1.526 -8.65 -12.204 -16.298 -23.49 -16.729 v -6.538 c 0.048 -0.476 0.044 -0.96 0 -1.451 V 28.18 c 1.386 0.719 3.055 1.083 4.884 1.083 c 2.897 0 6.181 -0.897 9.302 -2.673 c 5.894 -3.355 9.389 -8.808 8.495 -13.258 c -0.042 -0.21 -0.151 -0.402 -0.311 -0.545 c -3.369 -3.041 -9.841 -2.823 -15.737 0.531 c -4.808 2.736 -8.016 6.864 -8.553 10.709 c -0.051 0.12 -0.08 0.252 -0.08 0.391 v 2.416 c -1.504 -2.228 -3.767 -4.316 -6.59 -5.923 c -5.896 -3.355 -12.368 -3.573 -15.738 -0.531 c -0.16 0.144 -0.268 0.335 -0.311 0.545 c -0.894 4.451 2.6 9.903 8.496 13.258 c 3.121 1.776 6.403 2.673 9.301 2.673 c 1.81 0 3.464 -0.358 4.842 -1.063 v 4.234 c -7.058 0.272 -14.184 3.399 -18.889 8.319 c -3.879 0.319 -8.337 1.581 -13.25 5.875 c -0.497 0.434 -1.111 0.68 -1.724 0.666 l -1.331 -0.061 v -0.162 c 0 -2.356 -1.917 -4.273 -4.273 -4.273 H 1 c -0.552 0 -1 0.447 -1 1 v 26.95 c 0 0.553 0.448 1 1 1 h 10.254 c 2.356 0 4.273 -1.917 4.273 -4.273 v -0.667 h 4.814 c 1.61 0 3.225 0.178 4.798 0.528 l 14.401 3.211 c 1.29 0.288 2.61 0.434 3.931 0.434 c 0.087 0 0.175 -0.001 0.263 -0.002 l 7.97 -0.116 c 2.377 -0.034 4.688 -0.528 6.866 -1.465 l 28.248 -11.929 C 89.287 64 90.554 61.263 89.768 58.694 z" fill="#16a34a"/>
  </g>
</svg>